<svg viewBox="0 0 600 400" xmlns="http://www.w3.org/2000/svg">
<g transform="translate(72, 364)">
<g>
<rect fill="#334CDD" height="7.734496727952633" stroke="black" width="9.6" x="0" y="-7.734496727952633"/>
<rect fill="#334CDD" height="7.628544717980679" stroke="black" width="9.6" x="9.6" y="-7.628544717980679"/>
<rect fill="#334CDD" height="11.230913057027111" stroke="black" width="9.599999999999998" x="19.2" y="-11.230913057027111"/>
<rect fill="#334CDD" height="17.16422561545653" stroke="black" width="9.600000000000001" x="28.799999999999997" y="-17.16422561545653"/>
<rect fill="#334CDD" height="30.83203490183858" stroke="black" width="9.600000000000009" x="38.4" y="-30.83203490183858"/>
<rect fill="#334CDD" height="0" stroke="black" width="9.599999999999987" x="48.00000000000001" y="-0"/>
<rect fill="#334CDD" height="0" stroke="black" width="9.600000000000009" x="57.599999999999994" y="-0"/>
<rect fill="#334CDD" height="32.8451230913057" stroke="black" width="9.599999999999994" x="67.2" y="-32.8451230913057"/>
<rect fill="#334CDD" height="39.20224368962293" stroke="black" width="9.599999999999994" x="76.8" y="-39.20224368962293"/>
<rect fill="#334CDD" height="22.355874104082268" stroke="black" width="9.600000000000023" x="86.39999999999999" y="-22.355874104082268"/>
<rect fill="#334CDD" height="24.898722343409162" stroke="black" width="9.599999999999994" x="96.00000000000001" y="-24.898722343409162"/>
<rect fill="#334CDD" height="54.35338111561234" stroke="black" width="9.59999999999998" x="105.60000000000001" y="-54.35338111561234"/>
<rect fill="#334CDD" height="0" stroke="black" width="9.600000000000037" x="115.19999999999999" y="-0"/>
<rect fill="#334CDD" height="0" stroke="black" width="9.59999999999998" x="124.80000000000003" y="-0"/>
<rect fill="#334CDD" height="0" stroke="black" width="9.599999999999994" x="134.4" y="-0"/>
<rect fill="#334CDD" height="71.51760673106887" stroke="black" width="9.599999999999994" x="144" y="-71.51760673106887"/>
<rect fill="#334CDD" height="37.295107510127764" stroke="black" width="9.600000000000023" x="153.6" y="-37.295107510127764"/>
<rect fill="#334CDD" height="0" stroke="black" width="9.599999999999966" x="163.20000000000002" y="-0"/>
<rect fill="#334CDD" height="0" stroke="black" width="9.599999999999994" x="172.79999999999998" y="-0"/>
<rect fill="#334CDD" height="0" stroke="black" width="9.600000000000051" x="182.39999999999998" y="-0"/>
<rect fill="#334CDD" height="47.04269242754752" stroke="black" width="9.599999999999966" x="192.00000000000003" y="-47.04269242754752"/>
<rect fill="#334CDD" height="0" stroke="black" width="9.600000000000023" x="201.6" y="-0"/>
<rect fill="#334CDD" height="52.12838890620131" stroke="black" width="9.599999999999966" x="211.20000000000002" y="-52.12838890620131"/>
<rect fill="#334CDD" height="107.965098161421" stroke="black" width="9.599999999999994" x="220.79999999999998" y="-107.965098161421"/>
<rect fill="#334CDD" height="0" stroke="black" width="9.600000000000023" x="230.39999999999998" y="-0"/>
<rect fill="#334CDD" height="0" stroke="black" width="9.600000000000051" x="240" y="-0"/>
<rect fill="#334CDD" height="0" stroke="black" width="9.599999999999937" x="249.60000000000005" y="-0"/>
<rect fill="#334CDD" height="63.99501402306014" stroke="black" width="9.600000000000023" x="259.2" y="-63.99501402306014"/>
<rect fill="#334CDD" height="66.00810221252726" stroke="black" width="9.600000000000023" x="268.8" y="-66.00810221252726"/>
<rect fill="#334CDD" height="0" stroke="black" width="9.599999999999966" x="278.40000000000003" y="-0"/>
<rect fill="#334CDD" height="68.86880648177002" stroke="black" width="9.599999999999966" x="288" y="-68.86880648177002"/>
<rect fill="#334CDD" height="72.04736678092864" stroke="black" width="9.600000000000023" x="297.59999999999997" y="-72.04736678092864"/>
<rect fill="#334CDD" height="0" stroke="black" width="9.600000000000023" x="307.2" y="-0"/>
<rect fill="#334CDD" height="77.76877531941415" stroke="black" width="9.600000000000023" x="316.8" y="-77.76877531941415"/>
<rect fill="#334CDD" height="0" stroke="black" width="9.599999999999909" x="326.40000000000003" y="-0"/>
<rect fill="#334CDD" height="0" stroke="black" width="9.600000000000023" x="335.99999999999994" y="-0"/>
<rect fill="#334CDD" height="0" stroke="black" width="9.60000000000008" x="345.59999999999997" y="-0"/>
<rect fill="#334CDD" height="86.45684013711437" stroke="black" width="9.599999999999909" x="355.20000000000005" y="-86.45684013711437"/>
<rect fill="#334CDD" height="0" stroke="black" width="9.60000000000008" x="364.79999999999995" y="-0"/>
<rect fill="#334CDD" height="0" stroke="black" width="9.600000000000023" x="374.40000000000003" y="-0"/>
<rect fill="#334CDD" height="91.86039264568402" stroke="black" width="9.599999999999909" x="384.00000000000006" y="-91.86039264568402"/>
<rect fill="#334CDD" height="94.29728887503896" stroke="black" width="9.600000000000023" x="393.59999999999997" y="-94.29728887503896"/>
<rect fill="#334CDD" height="98.21751324400125" stroke="black" width="9.600000000000023" x="403.2" y="-98.21751324400125"/>
<rect fill="#334CDD" height="0" stroke="black" width="9.600000000000023" x="412.8" y="-0"/>
<rect fill="#334CDD" height="0" stroke="black" width="9.599999999999966" x="422.40000000000003" y="-0"/>
<rect fill="#334CDD" height="0" stroke="black" width="9.599999999999966" x="432" y="-0"/>
<rect fill="#334CDD" height="106.7996260517295" stroke="black" width="9.600000000000023" x="441.59999999999997" y="-106.7996260517295"/>
<rect fill="#334CDD" height="108.17700218136491" stroke="black" width="9.599999999999966" x="451.2" y="-108.17700218136491"/>
<rect fill="#334CDD" height="0" stroke="black" width="9.60000000000008" x="460.79999999999995" y="-0"/>
<rect fill="#334CDD" height="340" stroke="black" width="9.599999999999966" x="470.40000000000003" y="-340"/>
</g>
<g>
<g>
<line stroke="black" stroke-width="1" x1="0" x2="0" y1="0" y2="10"/>
<line stroke="black" stroke-width="1" x1="89.05380333951763" x2="89.05380333951763" y1="0" y2="10"/>
<line stroke="black" stroke-width="1" x1="178.10760667903526" x2="178.10760667903526" y1="0" y2="10"/>
<line stroke="black" stroke-width="1" x1="267.1614100185529" x2="267.1614100185529" y1="0" y2="10"/>
<line stroke="black" stroke-width="1" x1="356.2152133580705" x2="356.2152133580705" y1="0" y2="10"/>
<line stroke="black" stroke-width="1" x1="445.26901669758814" x2="445.26901669758814" y1="0" y2="10"/>
</g>
<line stroke="black" stroke-width="1" x1="0" x2="480" y1="0" y2="0"/>
<g>
<text font-size="12" text-anchor="middle" x="0" y="20">
0
</text>
<text font-size="12" text-anchor="middle" x="89.05380333951763" y="20">
200
</text>
<text font-size="12" text-anchor="middle" x="178.10760667903526" y="20">
400
</text>
<text font-size="12" text-anchor="middle" x="267.1614100185529" y="20">
600
</text>
<text font-size="12" text-anchor="middle" x="356.2152133580705" y="20">
800
</text>
<text font-size="12" text-anchor="middle" x="445.26901669758814" y="20">
1000
</text>
</g>
<text font-size="12" text-anchor="middle" x="240" y="30">
Degree
</text>
</g>
<g>
<g>
<line stroke="black" stroke-width="1" x1="0" x2="-10" y1="-0" y2="-0"/>
<line stroke="black" stroke-width="1" x1="0" x2="-10" y1="-105.95200997195388" y2="-105.95200997195388"/>
<line stroke="black" stroke-width="1" x1="0" x2="-10" y1="-211.90401994390777" y2="-211.90401994390777"/>
<line stroke="black" stroke-width="1" x1="0" x2="-10" y1="-317.85602991586165" y2="-317.85602991586165"/>
</g>
<line stroke="black" stroke-width="1" x1="0" x2="0" y1="0" y2="-340"/>
<g>
<text dominant-baseline="middle" font-size="12" text-anchor="end" x="-15" y="-0">
0
</text>
<text dominant-baseline="middle" font-size="12" text-anchor="end" x="-15" y="-105.95200997195388">
1000
</text>
<text dominant-baseline="middle" font-size="12" text-anchor="end" x="-15" y="-211.90401994390777">
2000
</text>
<text dominant-baseline="middle" font-size="12" text-anchor="end" x="-15" y="-317.85602991586165">
3000
</text>
</g>
<text font-size="12" text-anchor="middle" transform="rotate(-90 -48 -170)" x="-48" y="-182">
Number of nodes
</text>
</g>
</g>
</svg>